<svg width="20" height="25" viewBox="0 0 20 25" fill="none" xmlns="http://www.w3.org/2000/svg">
<path d="M10 0C6.55912 0 3.75 2.80912 3.75 6.25V10C1.39556 10 0 11.8243 0 13.54V21.4575C0 23.398 1.60201 25 3.54248 25H16.4575C18.398 25 20 23.398 20 21.4575V13.54C20 11.5996 18.398 10 16.4575 10H6.25V6.25C6.25 4.15088 7.90088 2.5 10 2.5C12.0991 2.5 13.75 4.15088 13.75 6.25C13.75 6.94035 14.3097 7.5 15 7.5C15.6903 7.5 16.25 6.94035 16.25 6.25C16.25 2.80912 13.4409 0 10 0ZM3.54248 12.5H16.4575C17.0562 12.5 17.5 12.9413 17.5 13.54V21.4575C17.5 22.0562 17.0562 22.5 16.4575 22.5H3.54248C2.94378 22.5 2.5 22.0562 2.5 21.4575V13.54C2.5 12.9413 2.94378 12.5 3.54248 12.5Z" fill="#07A189"/>
</svg>
