<svg width="28" height="20" viewBox="0 0 28 20" fill="none" xmlns="http://www.w3.org/2000/svg">
<path d="M28.0002 9.52109C28.0002 8.26109 27.4402 7.14109 26.4602 6.58109L23.9402 4.90109C23.2402 4.48109 22.4002 4.62109 21.9802 5.32109C21.5602 6.02109 21.7002 6.86109 22.4002 7.28109L24.9202 8.96109C25.2002 9.10109 25.2002 9.38109 25.2002 9.52109C25.2002 9.66109 25.2002 9.94109 24.9202 10.2211L22.1202 12.1811C19.6002 13.8611 16.5202 14.7011 13.4402 14.5611C12.7402 14.5611 12.0402 15.1211 12.0402 15.8211C12.0402 16.6611 12.6002 17.2211 13.3002 17.2211C13.5802 17.2211 13.8602 17.2211 14.1402 17.2211C17.5002 17.2211 20.7202 16.2411 23.6602 14.2811L26.4602 12.4611C27.4402 11.9011 28.0002 10.7811 28.0002 9.52109Z" fill="#07A189"/>
<path d="M1.54 12.46L4.34 14.42C5.04 14.7 5.6 15.12 6.16 15.4L4.62 16.94C4.06 17.5 4.06 18.34 4.62 18.9C4.9 19.18 5.18 19.32 5.6 19.32C6.02 19.32 6.3 19.18 6.58 18.9L9.52 15.96L11.48 14L18.2 7.28L20.16 5.32L23.1 2.38C23.66 1.82 23.66 0.98 23.1 0.42C22.54 -0.14 21.7 -0.14 21.14 0.42L19.04 2.52C14.14 0.98 8.68 1.82 4.48 4.62L1.68 6.44C0.56 7.14 0 8.26 0 9.52C0 10.78 0.56 11.9 1.54 12.46ZM14 6.16C14.42 6.16 14.84 6.3 15.26 6.44L10.92 10.78C10.78 10.36 10.64 9.94 10.64 9.52C10.64 7.7 12.18 6.16 14 6.16ZM3.08 8.82L5.88 6.86C7.14 6.3 8.26 5.74 9.52 5.32C8.4 6.44 7.84 7.84 7.84 9.52C7.84 10.64 8.12 11.76 8.82 12.74L8.26 13.3C7.42 13.02 6.72 12.6 6.02 12.04L3.22 10.08C2.8 9.94 2.8 9.66 2.8 9.52C2.8 9.38 2.8 9.1 3.08 8.82Z" fill="#07A189"/>
</svg>
