<svg width="26" height="18" viewBox="0 0 26 18" fill="none" xmlns="http://www.w3.org/2000/svg">
<path d="M25 6C24.7348 6 24.4804 6.10536 24.2929 6.29289C24.1054 6.48043 24 6.73478 24 7V15C24 15.2652 23.8946 15.5196 23.7071 15.7071C23.5196 15.8946 23.2652 16 23 16H3C2.73478 16 2.48043 15.8946 2.29289 15.7071C2.10536 15.5196 2 15.2652 2 15V7C2 6.73478 1.89464 6.48043 1.70711 6.29289C1.51957 6.10536 1.26522 6 1 6C0.734784 6 0.48043 6.10536 0.292893 6.29289C0.105357 6.48043 0 6.73478 0 7V15C0.000700208 15.7954 0.31723 16.5579 0.88 17.12C1.44207 17.6828 2.20462 17.9993 3 18H23C23.7954 17.9993 24.5579 17.6828 25.12 17.12C25.6828 16.5579 25.9993 15.7954 26 15V7C26 6.73478 25.8946 6.48043 25.7071 6.29289C25.5196 6.10536 25.2652 6 25 6Z" fill="#07A189"/>
<path d="M12.4 11.8C12.5731 11.9298 12.7836 12 13 12C13.2164 12 13.4269 11.9298 13.6 11.8L25.41 2.94C25.5942 2.80107 25.7248 2.6027 25.7794 2.37852C25.8341 2.15434 25.8096 1.91815 25.71 1.71C25.5611 1.40232 25.3616 1.12177 25.12 0.88C24.5579 0.31723 23.7954 0.000700208 23 0H3C2.20462 0.000700208 1.44207 0.31723 0.879997 0.88C0.638352 1.12177 0.438924 1.40232 0.289997 1.71C0.190413 1.91815 0.165881 2.15434 0.220558 2.37852C0.275236 2.6027 0.405759 2.80107 0.589997 2.94L12.4 11.8ZM3 2H23C23.0928 1.98539 23.1872 1.98539 23.28 2L13 9.75L2.72 2C2.81276 1.98539 2.90724 1.98539 3 2Z" fill="#07A189"/>
</svg>
